<?xml version="1.0" encoding="UTF-8"?>
<svg width="511px" height="511px" viewBox="0 0 511 511" version="1.1" xmlns="http://www.w3.org/2000/svg" xmlns:xlink="http://www.w3.org/1999/xlink">
    <!-- Generator: Sketch 48.2 (47327) - http://www.bohemiancoding.com/sketch -->
    <title>Icon</title>
    <desc>Created with Sketch.</desc>
    <defs>
        <linearGradient x1="50%" y1="0%" x2="50%" y2="100%" id="linearGradient-1">
            <stop stop-color="#FFFFFF" offset="0%"></stop>
            <stop stop-color="#A7A7A7" offset="100%"></stop>
        </linearGradient>
        <linearGradient x1="50%" y1="100%" x2="50%" y2="3.061617e-15%" id="linearGradient-2">
            <stop stop-color="#5176EC" offset="0%"></stop>
            <stop stop-color="#28B8EB" offset="100%"></stop>
        </linearGradient>
        <path d="M344.6,139.285714 C318.998438,139.285714 298.2,160.021714 298.2,185.571429 C298.2,202.646156 307.579687,217.415277 321.4,225.449826 L321.4,231.857143 C321.4,231.857143 321.4,278.142857 275,278.142857 C255.765025,278.142857 240.6872,282.256138 228.6,288.561482 L228.6,179.164112 C242.43155,171.129563 251.8,156.360442 251.8,139.285714 C251.8,113.736 231.0128,93 205.4,93 C179.7872,93 159,113.736 159,139.285714 C159,156.360442 168.36845,171.129563 182.2,179.164112 L182.2,330.847098 C168.36845,338.870438 159,353.628348 159,370.714286 C159,396.25279 179.7872,417 205.4,417 C231.0128,417 251.8,396.25279 251.8,370.714286 C251.8,358.600446 247.01935,347.66183 239.384375,339.390067 C246.135938,331.118304 257.1128,324.428571 275,324.428571 C367.075,324.428571 367.8,231.857143 367.8,231.857143 L367.8,225.449826 C381.620313,217.415277 391,202.646156 391,185.571429 C391,160.021714 370.201563,139.285714 344.6,139.285714 Z M205.4,116.142857 C218.234675,116.142857 228.6,126.482652 228.6,139.285714 C228.6,152.088777 218.234675,162.428571 205.4,162.428571 C192.565325,162.428571 182.2,152.088777 182.2,139.285714 C182.2,126.482652 192.565325,116.142857 205.4,116.142857 Z M205.4,393.857143 C192.565325,393.857143 182.2,383.506138 182.2,370.714286 C182.2,357.945214 192.565325,347.571429 205.4,347.571429 C218.234675,347.571429 228.6,357.945214 228.6,370.714286 C228.6,383.506138 218.234675,393.857143 205.4,393.857143 Z M344.6,208.714286 C331.776562,208.714286 321.4,198.374491 321.4,185.571429 C321.4,172.768366 331.776562,162.428571 344.6,162.428571 C357.423437,162.428571 367.8,172.768366 367.8,185.571429 C367.8,198.374491 357.423437,208.714286 344.6,208.714286 Z" id="path-3"></path>
        <filter x="-11.6%" y="-6.5%" width="123.3%" height="116.7%" filterUnits="objectBoundingBox" id="filter-4">
            <feOffset dx="0" dy="6" in="SourceAlpha" result="shadowOffsetOuter1"></feOffset>
            <feGaussianBlur stdDeviation="8" in="shadowOffsetOuter1" result="shadowBlurOuter1"></feGaussianBlur>
            <feColorMatrix values="0 0 0 0 0   0 0 0 0 0   0 0 0 0 0  0 0 0 0.48267663 0" type="matrix" in="shadowBlurOuter1"></feColorMatrix>
        </filter>
    </defs>
    <g id="Icon" stroke="none" stroke-width="1" fill="none" fill-rule="evenodd">
        <g>
            <circle id="Oval" fill="url(#linearGradient-1)" cx="255.5" cy="255.5" r="255.5"></circle>
            <circle id="Oval" fill="#363636" cx="255.5" cy="255.5" r="226.5"></circle>
            <g id="Shape" fill-rule="nonzero">
                <use fill="black" fill-opacity="1" filter="url(#filter-4)" xlink:href="#path-3"></use>
                <use fill="url(#linearGradient-2)" fill-rule="evenodd" xlink:href="#path-3"></use>
            </g>
        </g>
    </g>
</svg>