<svg width="900" height="900" xmlns="http://www.w3.org/2000/svg">
    <g>
        <path stroke-width="0" fill="#ffffff" d="m642.000001,130c-70.625,0 -128,57.344 -128,128c0,47.219 25.875,88.062 64,110.281l0,17.719c0,0 0,128 -128,128c-53.062,0 -94.656,11.375 -128,28.812l0,-302.531c38.156,-22.219 64,-63.062 64,-110.281c0,-70.656 -57.344,-128 -128,-128s-128,57.344 -128,128c0,47.219 25.844,88.062 64,110.281l0,419.469c-38.156,22.188 -64,63 -64,110.25c0,70.625 57.344,128 128,128s128,-57.375 128,-128c0,-33.5 -13.188,-63.75 -34.25,-86.625c18.625,-22.875 48.906,-41.375 98.25,-41.375c254,0 256,-256 256,-256l0,-17.719c38.125,-22.219 64,-63.062 64,-110.281c0,-70.656 -57.375,-128 -128,-128zm-384,-64c35.406,0 64,28.594 64,64s-28.594,64 -64,64s-64,-28.594 -64,-64s28.594,-64 64,-64zm0,768c-35.406,0 -64,-28.625 -64,-64c0,-35.312 28.594,-64 64,-64s64,28.688 64,64c0,35.375 -28.594,64 -64,64zm384,-512c-35.375,0 -64,-28.594 -64,-64s28.625,-64 64,-64s64,28.594 64,64s-28.625,64 -64,64z"/>
    </g>
</svg>
