<?xml version="1.0" encoding="UTF-8"?>
<svg width="10px" height="20px" viewBox="0 0 10 20" version="1.1" xmlns="http://www.w3.org/2000/svg" xmlns:xlink="http://www.w3.org/1999/xlink">
    <!-- Generator: Sketch 48.2 (47327) - http://www.bohemiancoding.com/sketch -->
    <title>Custom Preset</title>
    <desc>Created with Sketch.</desc>
    <defs></defs>
    <g id="Page-1" stroke="none" stroke-width="1" fill="none" fill-rule="evenodd">
        <g id="Custom-Preset" fill="#000000" fill-rule="nonzero">
            <g id="menubar-icon" transform="translate(0.000000, 3.000000)">
                <path d="M8,2 C6.89648438,2 6,2.896 6,4 C6,4.73779687 6.40429688,5.37596875 7,5.72314063 L7,6 C7,6 7,8 5,8 C4.17090625,8 3.521,8.17773438 3,8.4501875 L3,3.72314063 C3.5961875,3.37596875 4,2.73779687 4,2 C4,0.896 3.104,0 2,0 C0.896,0 0,0.896 0,2 C0,2.73779687 0.4038125,3.37596875 1,3.72314063 L1,10.2773438 C0.4038125,10.6240312 0,11.2617188 0,12 C0,13.1035156 0.896,14 2,14 C3.104,14 4,13.1035156 4,12 C4,11.4765625 3.7939375,11.0039062 3.46484375,10.6464844 C3.75585938,10.2890625 4.229,10 5,10 C8.96875,10 9,6 9,6 L9,5.72314063 C9.59570312,5.37596875 10,4.73779687 10,4 C10,2.896 9.10351562,2 8,2 Z M2,1 C2.55321875,1 3,1.44678125 3,2 C3,2.55321875 2.55321875,3 2,3 C1.44678125,3 1,2.55321875 1,2 C1,1.44678125 1.44678125,1 2,1 Z M2,13 C1.44678125,13 1,12.5527344 1,12 C1,11.44825 1.44678125,11 2,11 C2.55321875,11 3,11.44825 3,12 C3,12.5527344 2.55321875,13 2,13 Z M8,5 C7.44726562,5 7,4.55321875 7,4 C7,3.44678125 7.44726562,3 8,3 C8.55273437,3 9,3.44678125 9,4 C9,4.55321875 8.55273437,5 8,5 Z" id="Shape"></path>
            </g>
        </g>
    </g>
</svg>