<?xml version="1.0" encoding="UTF-8" standalone="no"?>
<svg version="1.1" viewBox="0 0 60 60" xmlns="http://www.w3.org/2000/svg" xmlns:xlink="http://www.w3.org/1999/xlink">
  <path fill="#ffffff" d="M17.55 2.88L18.05 2.94L18.56 3.02L19.05 3.13L20 3.42L20.46 3.62L20.9 3.81L21.33 4.04L21.74 4.26L22.13 4.52L22.51 4.81L22.87 5.1L23.21 5.41L23.52 5.73L23.81 6.07L24.09 6.42L24.35 6.79L24.58 7.18L24.8 7.57L24.98 7.97L25.14 8.39L25.25 8.81L25.37 9.24L25.43 9.68L25.48 10.13L25.5 10.59L25.5 10.9L25.47 11.19L25.43 11.5L25.34 12.08L25.17 12.66L24.98 13.2L24.85 13.48L24.71 13.74L24.42 14.25L24.26 14.51L24.08 14.75L23.9 14.98L23.7 15.22L23.5 15.44L23.29 15.65L22.83 16.07L22.6 16.27L22.34 16.46L22.1 16.64L21.83 16.81L21.28 17.14L21 17.28L21 35.65L21.25 35.53L21.77 35.31L22.05 35.21L22.31 35.12L22.87 34.92L23.16 34.83L24.04 34.58L24.35 34.5L24.98 34.37L25.63 34.25L25.96 34.2L26.99 34.05L27.35 34.02L27.71 33.99L28.07 33.96L28.82 33.92L29.61 33.89L30 33.89L30.93 33.86L31.8 33.78L32.6 33.65L33.34 33.46L34.01 33.23L34.63 32.97L35.2 32.68L35.73 32.34L36.19 32.01L36.61 31.64L36.99 31.23L37.31 30.83L37.61 30.43L37.87 30.01L38.1 29.59L38.3 29.19L38.46 28.78L38.59 28.38L38.71 28.01L38.79 27.67L38.85 27.33L38.92 27.04L38.95 26.79L38.97 26.56L38.98 26.37L39 26.24L39 25.05L38.72 24.9L38.17 24.58L37.9 24.4L37.66 24.22L37.17 23.84L36.71 23.42L36.5 23.21L36.1 22.76L35.74 22.27L35.58 22.02L35.43 21.78L35.29 21.5L35.15 21.24L34.93 20.7L34.83 20.42L34.75 20.13L34.66 19.86L34.61 19.55L34.57 19.26L34.53 18.97L34.5 18.67L34.5 18.36L34.52 17.89L34.57 17.46L34.63 17.01L34.75 16.57L34.88 16.15L35.02 15.73L35.2 15.33L35.42 14.94L35.65 14.56L35.91 14.19L36.19 13.83L36.48 13.49L36.79 13.17L37.13 12.87L37.49 12.58L37.87 12.3L38.26 12.04L38.67 11.8L39.1 11.58L39.54 11.38L40 11.21L40.47 11.05L40.95 10.9L41.44 10.79L41.95 10.71L42.45 10.64L42.98 10.59L44.02 10.59L44.55 10.64L45.05 10.71L45.56 10.79L46.05 10.9L46.53 11.05L47 11.21L47.46 11.38L47.9 11.58L48.33 11.8L48.74 12.04L49.13 12.3L49.51 12.58L49.87 12.87L50.21 13.17L50.52 13.49L50.81 13.83L51.09 14.19L51.35 14.56L51.58 14.94L51.8 15.33L51.98 15.73L52.12 16.15L52.25 16.57L52.37 17.01L52.43 17.46L52.48 17.89L52.5 18.36L52.5 18.67L52.47 18.97L52.43 19.26L52.39 19.55L52.34 19.86L52.25 20.13L52.17 20.42L52.07 20.7L51.85 21.24L51.71 21.5L51.57 21.78L51.42 22.02L51.26 22.27L51.08 22.52L50.9 22.76L50.5 23.21L50.29 23.42L49.83 23.84L49.34 24.22L49.1 24.4L48.83 24.58L48.28 24.9L48 25.05L48 26.19L47.98 26.35L47.97 26.62L47.93 26.98L47.89 27.43L47.8 27.96L47.71 28.56L47.56 29.2L47.38 29.91L47.15 30.65L46.87 31.43L46.54 32.23L46.15 33.07L45.69 33.89L45.17 34.73L44.58 35.55L43.91 36.36L43.16 37.13L42.31 37.87L41.37 38.58L40.34 39.24L39.21 39.82L37.97 40.35L36.63 40.8L35.15 41.16L33.57 41.43L31.85 41.61L30 41.66L29.64 41.66L29.28 41.67L28.94 41.7L28.59 41.72L28.27 41.77L27.95 41.8L27.64 41.85L27.05 41.98L26.78 42.04L26.5 42.12L26.24 42.2L25.97 42.3L25.73 42.4L25.5 42.49L25.27 42.61L25.04 42.7L24.83 42.82L24.63 42.95L24.42 43.06L24.24 43.19L24.04 43.32L23.88 43.46L23.7 43.59L23.54 43.73L23.09 44.17L23.41 44.48L23.55 44.64L23.68 44.8L23.83 44.96L23.96 45.12L24.09 45.3L24.22 45.46L24.45 45.81L24.55 46.01L24.67 46.18L24.76 46.36L24.85 46.55L24.94 46.75L25.03 46.94L25.09 47.13L25.16 47.34L25.22 47.54L25.29 47.75L25.34 47.94L25.37 48.15L25.42 48.36L25.45 48.57L25.47 48.78L25.48 49L25.5 49.21L25.5 49.42L25.48 49.89L25.43 50.34L25.37 50.78L25.25 51.21L25.14 51.63L24.98 52.05L24.8 52.45L24.58 52.84L24.35 53.22L24.09 53.59L23.81 53.95L23.52 54.29L23.21 54.61L22.87 54.92L22.51 55.21L22.13 55.48L21.74 55.75L21.33 55.98L20.9 56.2L20.46 56.4L20 56.59L19.05 56.88L18.56 56.99L18.05 57.07L17.55 57.14L17.02 57.19L15.98 57.19L15.45 57.14L14.95 57.07L14.44 56.99L13.95 56.88L13 56.59L12.54 56.4L12.1 56.2L11.67 55.98L11.26 55.75L10.87 55.48L10.49 55.21L10.13 54.92L9.79 54.61L9.48 54.29L9.19 53.95L8.91 53.59L8.65 53.22L8.42 52.84L8.2 52.45L8.02 52.05L7.86 51.63L7.75 51.21L7.63 50.78L7.57 50.34L7.52 49.89L7.5 49.42L7.5 49.12L7.53 48.83L7.57 48.52L7.66 47.94L7.83 47.36L8.02 46.81L8.15 46.54L8.29 46.28L8.58 45.76L8.74 45.51L8.92 45.27L9.1 45.04L9.3 44.8L9.5 44.57L9.71 44.36L10.17 43.94L10.4 43.75L10.66 43.56L10.9 43.38L11.17 43.2L11.72 42.88L12 42.74L12 17.28L11.72 17.14L11.17 16.81L10.9 16.64L10.66 16.46L10.4 16.27L10.17 16.07L9.71 15.65L9.5 15.44L9.3 15.22L9.1 14.98L8.92 14.75L8.74 14.51L8.58 14.25L8.29 13.74L8.15 13.48L8.02 13.2L7.83 12.66L7.66 12.08L7.57 11.5L7.53 11.19L7.5 10.9L7.5 10.59L7.52 10.13L7.57 9.68L7.63 9.24L7.75 8.81L7.86 8.39L8.02 7.97L8.2 7.57L8.42 7.18L8.65 6.79L8.91 6.42L9.19 6.07L9.48 5.73L9.79 5.41L10.13 5.1L10.49 4.81L10.87 4.52L11.26 4.26L11.67 4.04L12.1 3.81L12.54 3.62L13 3.42L13.95 3.13L14.44 3.02L14.95 2.94L15.45 2.88L15.98 2.83L16.5 2.81L17.02 2.83L17.55 2.88ZM13.31 46.68L12.36 47.92L12 49.42L12.36 50.94L13.31 52.18L14.75 53L16.5 53.3L18.25 53L19.69 52.18L20.64 50.94L21 49.42L20.64 47.92L19.69 46.68L18.25 45.85L16.5 45.54L14.75 45.85L13.31 46.68ZM40.31 15.6L39.36 16.85L39 18.36L39.36 19.87L40.31 21.1L41.75 21.94L43.5 22.24L45.25 21.94L46.67 21.1L47.64 19.87L48 18.36L47.64 16.85L46.67 15.6L45.25 14.78L43.5 14.48L41.75 14.78L40.31 15.6ZM13.31 7.84L12.36 9.08L12 10.59L12.36 12.11L13.31 13.33L14.75 14.17L16.5 14.48L18.25 14.17L19.69 13.33L20.64 12.11L21 10.59L20.64 9.08L19.69 7.84L18.25 7L16.5 6.71L14.75 7L13.31 7.84Z" />
</svg>
